<svg clip-rule="evenodd" fill-rule="evenodd" height="1.707in" image-rendering="optimizeQuality" shape-rendering="geometricPrecision" text-rendering="geometricPrecision" viewBox="0 0 1.70666 1.70666" width="1.707in" xmlns="http://www.w3.org/2000/svg" fill="#86efac"><g id="Layer_x0020_1"><g id="_526055008"><g><path id="_526057288" d="m1.0943 1.54039h-.779354c-.0110394 0-.02-.0089685-.02-.02v-1.12238c0-.00530709.00211024-.0103858.0058622-.0141339.00375197-.00374803.00883465-.00586614.0141378-.00586614h.927516c.0110394 0 .02.00896063.02.02v.318291h.142201v-.318307c0-.0110394.0089685-.02.0199961-.02h.113886c.0110394 0 .02.00896063.02.02v.678126c0 .00530709-.00211024.0103858-.0058622.0141496l-.44426.44426c-.00373228.00373622-.00883071.0058622-.014122.0058622zm-.759358-.0400118h.751067l.432547-.432551.00000394-.649835h-.0738701v.318291c0 .0110394-.0089685.02-.02.02l-.182217.00000394c-.0110394 0-.02-.00896063-.02-.02v-.318295h-.887539l.00000787 1.08239z" fill="#86efac"/></g><g><path id="_526058008" d="m.314941 1.54039c-.0109724 0-.019874-.00883465-.02-.0197795 0-.00001575 0-.00002362 0-.00002362s0 0 0-.00001575v-.00001575c0-.00001575 0-.00001575 0-.00001575 0-.00001575 0-.00001575 0-.00002756 0-.00001575 0-.00001575 0-.00002756 0 0 0 0 0-.00001575v-.00001575c0-.00001575 0-.00001575 0-.00001575 0-.00001575 0-.00001575 0-.00001575 0-.00001575 0-.00001575 0-.00002362 0-.00001575 0-.00001575 0-.00002756 0-.0702913-.0571929-.127453-.127465-.127453-.0702913 0-.127453.0571614-.127453.127453 0 .0110394-.00896063.02-.02.02-.0110394 0-.02-.00897244-.02-.02v-1.16414c0-.0923346.075122-.167453.167453-.167453.0923307 0 .167453.0751181.167453.167453v1.16414c.00000787.0110472-.00894488.0200157-.0199882.0200157zm-.147465-.187461c.0509843 0 .0967205.0229016.127465.0589685v-1.05566c0-.0702913-.0571772-.127453-.127453-.127453-.0702756 0-.127457.0571772-.127457.127453v1.05565c.0307244-.0360551.0764606-.0589567.127445-.0589567z" fill="#86efac"/></g><g><path id="_526057888" d="m.167476 1.68784c-.0923307 0-.167453-.0751181-.167453-.167461 0-.0923425.075122-.167465.167453-.167465.0923307 0 .167453.075122.167453.167465 0 .0923425-.0751102.167461-.167453.167461zm0-.294906c-.0702913 0-.127453.0571654-.127453.127453 0 .0702913.0571772.127457.127453.127457.0702756 0 .127453-.0571654.127453-.127457 0-.0702874-.0571654-.127453-.127453-.127453z" fill="#86efac"/></g><g><path id="_526057792" d="m1.68662 1.68784h-.739791c-.00808268 0-.015374-.00488583-.0184724-.0123622-.00311024-.0074685-.00138976-.0160669.00433858-.0217874l.739787-.739791c.00572047-.00570472.0143622-.00743307.0217913-.00433465.0074685.00309843.0123583.0103898.0123583.0184724v.739791c-.00001575.0110433-.00897244.0200118-.0200118.0200118zm-.6915-.0400118h.6715v-.6715z" fill="#86efac"/></g><g><path id="_526057000" d="m1.54131 1.54253h-.243661c-.00808268 0-.015374-.00488583-.0184685-.0123622-.00311417-.0074685-.0013937-.0160669.00433465-.0217874l.243657-.243654c.00573622-.00570866.0143622-.00741732.0217913-.00433858.0074685.00309843.0123583.0103898.0123583.0184724v.243657c-.00000394.0110394-.00897244.0200118-.0200118.0200118zm-.195366-.0400079h.175366v-.17537z" fill="#86efac"/></g><g><path id="_526056880" d="m1.17701 1.68784c-.0110394 0-.02-.0089685-.02-.0199961v-.0681496c0-.0110394.00897244-.02.02-.02.0110276 0 .02.0089685.02.02v.0681496c0 .0110276-.00895669.0199961-.02.0199961z" fill="#86efac"/></g><g><path id="_526056760" d="m1.26148 1.68784c-.0110394 0-.02-.0089685-.02-.0199961v-.0681496c0-.0110394.00897244-.02.02-.02.0110276 0 .02.0089685.02.02v.0681496c0 .0110276-.00895669.0199961-.02.0199961z" fill="#86efac"/></g><g><path id="_526057264" d="m1.34595 1.68784c-.0110394 0-.02-.0089685-.02-.0199961v-.0681496c0-.0110394.00897244-.02.02-.02.0110276 0 .02.0089685.02.02v.0681496c0 .0110276-.00895669.0199961-.02.0199961z" fill="#86efac"/></g><g><path id="_526056520" d="m1.43042 1.68784c-.0110394 0-.02-.0089685-.02-.0199961v-.0681496c0-.0110394.00897244-.02.02-.02.0110276 0 .02.0089685.02.02v.0681496c0 .0110276-.00895669.0199961-.02.0199961z" fill="#86efac"/></g><g><path id="_526056712" d="m1.51489 1.68784c-.0110394 0-.0199961-.0089685-.0199961-.0199961v-.0681496c0-.0110394.0089685-.02.0199961-.02.0110315 0 .02.0089685.02.02v.0681496c0 .0110276-.00895276.0199961-.02.0199961z" fill="#86efac"/></g><g><path id="_526056688" d="m1.59935 1.68784c-.0110394 0-.0199961-.0089685-.0199961-.0199961v-.0681496c0-.0110394.0089685-.02.0199961-.02.0110315 0 .02.0089685.02.02v.0681496c0 .0110276-.00895276.0199961-.02.0199961z" fill="#86efac"/></g><g><path id="_526056088" d="m1.06687 1.18406h-.539236c-.0110394 0-.02-.0089685-.02-.02v-.351555c0-.0110354.00896063-.0199961.02-.0199961h.539236c.0110354 0 .0199961.00896063.0199961.0199961v.351555c0 .0110394-.00895276.02-.0199961.02zm-.51924-.0399961h.49924v-.311575h-.49924z" fill="#86efac"/></g><g><path id="_526055896" d="m1.14193.832488c-.00005906 0-.00016929 0-.00027953 0h-.688858c-.00809843 0-.015374-.00487402-.0184843-.0123465-.00309843-.0074685-.0013937-.0160827.00434646-.0217874l.344429-.344433c.0075-.0075.0207756-.0075.0282756 0l.342587.342587c.00484252.00365354.00797244.00945669.00797244.0159803.00002756.0110551-.00893307.02-.0199882.02zm-.640835-.0399803h.59228l-.296138-.296157z" fill="#86efac"/></g><g><path id="_526055800" d="m.908634 1.18406h-.222807c-.0110394 0-.02-.0089685-.02-.02v-.131283c0-.0721772.0587205-.130913.130898-.130913.0727323 0 .131909.0591772.131909.131909v.130287c.00001575.0110394-.00895276.02-.02.02zm-.202807-.0399961h.182811v-.110276c0-.0506811-.0412244-.0918976-.0918976-.0918976-.050122 0-.0909134.0407756-.0909134.0909016z" fill="#86efac"/></g><g><path id="_526056256" d="m1.13861 1.28309h-.682748c-.0110354 0-.0199961-.00897244-.0199961-.02 0-.0110276.00896063-.02.0199961-.02h.682748c.0110394 0 .02.00897244.02.02 0 .0110276-.00896063.02-.02.02z" fill="#86efac"/></g><g><path id="_526056424" d="m.455866 1.31972c-.0110354 0-.0199961-.0089685-.0199961-.0199961v-.0732638c0-.0110394.00896063-.02.0199961-.02.0110394 0 .02.00897244.02.02v.0732638c0 .0110433-.00894488.0199961-.02.0199961z" fill="#86efac"/></g><g><path id="_526056208" d="m1.13861 1.31972c-.0110394 0-.02-.0089685-.02-.0199961v-.0732638c0-.0110394.00897244-.02.02-.02.0110276 0 .02.00897244.02.02v.0732638c0 .0110433-.00896063.0199961-.02.0199961z" fill="#86efac"/></g><g><path id="_526056160" d="m.167476 1.60088c-.0443858 0-.0804961-.036126-.0804961-.0804961 0-.0443858.0361102-.0805118.0804961-.0805118.0443858 0 .0804961.036126.0804961.0805118 0 .0443819-.0361102.0804961-.0804961.0804961zm0-.121c-.0223346 0-.0404961.0181693-.0404961.0404961 0 .0223228.0181654.0404882.0404961.0404882s.0404961-.0181654.0404961-.0404882c0-.0223268-.0181654-.0404961-.0404961-.0404961z" fill="#86efac"/></g><g><path id="_526055872" d="m.167488 1.24222c-.0110394 0-.02-.0089685-.02-.02v-.728902c0-.0110394.00896063-.02.02-.02.0110394 0 .0199961.00896063.0199961.02v.728898c0 .0110276-.00895276.0200039-.0199961.0200039z" fill="#86efac"/></g><g><path id="_526055440" d="m1.42467.756287h-.182213c-.0110394 0-.0199961-.00896063-.0199961-.02v-.546685c0-.0110394.0089685-.02.0199961-.02h.182213c.0110394 0 .02.00896063.02.02v.546669c0 .0110551-.00896063.0200157-.02.0200157zm-.162213-.04h.142201v-.506685h-.142201z" fill="#86efac"/></g><g><path id="_526055368" d="m1.42467.209614h-.182213c-.0110394 0-.0199961-.00896063-.0199961-.02v-.0753976c0-.0526063.0427992-.0953976.0953937-.0953976h.0314291c.0525945 0 .0953976.0427992.0953976.0953976v.0753976c-.00001181.0110433-.00897244.02-.0200118.02zm-.162213-.04h.142201v-.0553976c0-.0305551-.0248465-.0554016-.0553898-.0554016h-.0314291c-.0305394 0-.0553858.0248622-.0553858.0554016l.00000394.0553976z" fill="#86efac"/></g><g><path id="_526055344" d="m1.33355.9035c-.00692913 0-.0133583-.00359843-.0170118-.00948425l-.0911102-.14722c-.00380315-.00616535-.00398425-.0139134-.00045669-.020248.00352756-.00634646.0102087-.0102638.0174685-.0102638l.182213.00000394c.00725197 0 .0139409.00393307.0174685.0102638.00352756.00633465.00335039.0140827-.00045669.020252l-.0911181.147217c-.0036378.00588189-.0100669.00948031-.0169961.00948031zm-.0551929-.147213.0552047.0892047.0552205-.0892047h-.110425z" fill="#86efac"/></g><g><path id="_526055560" d="m1.38263.824201h-.0981457c-.0110394 0-.02-.00896063-.02-.02 0-.0110394.0089685-.02.02-.02h.0981457c.0110394 0 .02.00896063.02.02 0 .0110394-.00896063.02-.02.02z" fill="#86efac"/></g><g><path id="_526055512" d="m1.33355.634803c-.0110394 0-.02-.00896063-.02-.02v-.303709c0-.0110394.00897244-.02.02-.02.0110276 0 .02.00896063.02.02v.303709c.00000787.0110433-.00896063.02-.02.02z" fill="#86efac"/></g></g></g></svg>