<?xml version="1.0"?>
<svg xmlns="http://www.w3.org/2000/svg" id="Layer_1" data-name="Layer 1" viewBox="0 0 128 128" fill="#86efac"><title/><path d="M67,10a9,9,0,1,0,9,9A9.01015,9.01015,0,0,0,67,10Zm0,14a5,5,0,1,1,5-5A5.00589,5.00589,0,0,1,67,24Z"/><path d="M97,28a9,9,0,1,0-9-9A9.01015,9.01015,0,0,0,97,28Zm0-14a5,5,0,1,1-5,5A5.00589,5.00589,0,0,1,97,14Z"/><path d="M97,52a9,9,0,1,0-9-9A9.01015,9.01015,0,0,0,97,52Zm0-14a5,5,0,1,1-5,5A5.00589,5.00589,0,0,1,97,38Z"/><path d="M97,76a9,9,0,1,0-9-9A9.01015,9.01015,0,0,0,97,76Zm0-14a5,5,0,1,1-5,5A5.00589,5.00589,0,0,1,97,62Z"/><path d="M97,100a9,9,0,1,0-9-9A9.01015,9.01015,0,0,0,97,100Zm0-14a5,5,0,1,1-5,5A5.00589,5.00589,0,0,1,97,86Z"/><path d="M84,80V30a2,2,0,0,0-4,0V80a2,2,0,0,0,4,0Z"/><path d="M67,62a5,5,0,0,1,1,9.89893V75.941A8.99792,8.99792,0,1,0,61.30823,60.0354l2.97467,2.77814A4.96221,4.96221,0,0,1,67,62Z"/><path d="M67,52a9,9,0,1,0-7.6861-13.65826A10.14313,10.14313,0,0,1,60,42v6.64441A8.98321,8.98321,0,0,0,67,52Zm0-14a5,5,0,1,1-5,5A5.00589,5.00589,0,0,1,67,38Z"/><path d="M20.59668,20.4668,44,14.90692V10.79468L19.67188,16.57422a8.00039,8.00039,0,0,0-5.833,10.01563l3.18848,10.97229a9.99362,9.99362,0,0,1,3.08856-3.70392l-2.43622-8.38361a3.99939,3.99939,0,0,1,2.917-5.00781Z"/><path d="M38,101.999a2.0001,2.0001,0,0,0,2-2v-3h3a2,2,0,0,0,0-4H40v-3a2,2,0,0,0-4,0v3H33a2,2,0,0,0,0,4h3v3A2.0001,2.0001,0,0,0,38,101.999Z"/><path d="M19.835,124A4.09576,4.09576,0,0,1,16,119.69336V112H34.80939a15.3825,15.3825,0,0,1,1.99176-4H16V82H60v1.54437a16.77643,16.77643,0,0,1,4-1.78906v-10.392A8.64126,8.64126,0,0,0,62.25635,66.418a2.05506,2.05506,0,0,0-.18115-.19336l-7.35352-6.86914a4.8817,4.8817,0,0,1-.77051-2.32031V52H54a2.0001,2.0001,0,0,0,2-2V41.999A5.89213,5.89213,0,0,0,50.23535,36H25.76465A5.89213,5.89213,0,0,0,20,41.999V50a2.0001,2.0001,0,0,0,2,2h.04883v5.03516a4.88222,4.88222,0,0,1-.76953,2.32031L13.9248,66.22461a2.07651,2.07651,0,0,0-.18213.19434A8.6482,8.6482,0,0,0,12,71.36328v48.33008A8.09039,8.09039,0,0,0,19.835,128H38.47345a14.98354,14.98354,0,0,1-2.86078-4ZM24,41.999A1.89475,1.89475,0,0,1,25.76465,40h24.4707A1.89475,1.89475,0,0,1,52,41.999V48H24ZM49.95117,52v5H26.04883V52ZM16,71.36328a4.91505,4.91505,0,0,1,.77148-2.32422L24.125,62.17188a2.143,2.143,0,0,0,.17969-.19141A6.48183,6.48183,0,0,0,24.95563,61H51.04535a6.49566,6.49566,0,0,0,.65094.98047,2.143,2.143,0,0,0,.17969.19141L59.229,69.04A4.90022,4.90022,0,0,1,60,71.36328V78H16Z"/><path d="M108,0H56a8.00917,8.00917,0,0,0-8,8V32h2.23535A9.52983,9.52983,0,0,1,52,32.17206V8a4.00427,4.00427,0,0,1,4-4h52a4.00427,4.00427,0,0,1,4,4v94a4.00427,4.00427,0,0,1-4,4H83.52655a14.98354,14.98354,0,0,1,2.86078,4H108a8.00917,8.00917,0,0,0,8-8V8A8.00917,8.00917,0,0,0,108,0Z"/><path d="M59.63379,88.86621A13.00387,13.00387,0,0,0,56.45,102h4.29974A8.98814,8.98814,0,0,1,73.61084,90.44342L62.05591,102h5.6568l8.727-8.72821a9.02835,9.02835,0,0,1,.32544,9.00812,13.08323,13.08323,0,0,1,3.7561,1.4223,12.99106,12.99106,0,0,0-20.88745-14.836Z"/><path d="M74.126,106H47.874C42.42969,106,38,110.93457,38,117s4.42969,11,9.874,11H74.126C79.57031,128,84,123.06543,84,117S79.57031,106,74.126,106ZM59,124H47.874C44.63525,124,42,120.85938,42,117s2.63525-7,5.874-7H59Zm15.126,0H63V110H74.126c3.23877,0,5.874,3.14063,5.874,7S77.36475,124,74.126,124Z"/></svg>
