<svg id="Layer_1" enable-background="new 0 0 512 512" height="512" viewBox="0 0 512 512" width="512" xmlns="http://www.w3.org/2000/svg" fill="#86efac" stroke="4px"><path d="m140.9 212h29.6c2.7 0 4.9 2.2 4.9 4.9v15.3c8.5 2 16.6 5.4 24 9.9l10.9-10.9c1.9-1.9 5-1.9 6.9 0l20.9 20.9c1.9 1.9 1.9 5 0 6.9l-10.9 10.9c4.5 7.4 7.9 15.5 9.9 24h15.3c2.7 0 4.9 2.2 4.9 4.9v29.6c0 2.7-2.2 4.9-4.9 4.9h-15.3c-2 8.5-5.4 16.6-9.9 24l10.9 10.9c1.9 1.9 1.9 5 0 6.9l-20.9 20.9c-1.9 1.9-5 1.9-6.9 0l-10.9-10.9c-6.9 4.3-14.5 7.5-22.4 9.6-.3 2.3-.6 4.7-1 7.2-.2 1-.4 1.9-.5 2.9v5.6c0 1.7-.9 3.1-2.1 4-4.3 18-6.9 30.6-9.6 43.3-2.4 11.3-4.7 22.5-8.4 38.3h150l7.3-30.4c5.3-22.4 25.1-38.1 48-38.1h33.5c10.8 0 19.9-3.8 27.6-11.4s11.7-16.6 11.9-27.4c.2-12.6.3-20.3.3-27.9.1-7.6.1-15.3.4-27.6-.1-2.7 1.9-5 4.5-5.2l41.7-2.1c9-.4 14.9-10.4 10.2-18.2-13.6-22.6-35.7-55.6-45-75.2-.3-.7-.5-1.4-.5-2.2 3.1-98.1-41.3-170.1-145.4-170.1-38.6 0-76.8 5.8-108.4 21.9.6 1.8 1.1 3.7 1.6 5.6h15.4c2.7 0 4.9 2.2 4.9 4.9v29.6c0 2.7-2.2 4.9-4.9 4.9h-15.4c-.9 3.9-2.5 8.8-4 12.4-1.7 4.1-3.7 7.9-5.9 11.6l10.8 10.9c1.9 1.9 1.9 5 0 6.9l-20.9 20.9c-1.9 1.9-5 1.9-6.9 0l-10.9-10.9c-7.4 4.5-15.5 7.9-24 9.9v15.3c0 2.7-2.2 4.9-4.9 4.9h-7.2c.2 9.2 1 18.5 2.4 27.6 4.6-2.1 9.4-3.7 14.4-4.9v-15.3c0-2.2 2.2-4.4 4.9-4.4zm22.2 203.5h-22.1c-2.7 0-4.9-2.2-4.9-4.9v-15.3c-8.5-2-16.6-5.4-24-9.9l-10.9 10.9c-1.9 1.9-5 1.9-6.9 0l-20.9-20.9c-1.9-1.9-1.9-5 0-6.9l10.9-10.9c-4.5-7.4-7.9-15.5-9.9-24h-15.5c-2.8 0-5-2.2-4.9-5.3v-29.3c0-2.7 2.2-4.9 4.9-4.9h15.3c2-8.5 5.4-16.6 9.9-24l-10.9-10.9c-1.9-1.9-1.9-5 0-6.9l20.9-20.9c1.9-1.9 5-1.9 6.9 0l10.9 10.9.5-.3c-1.8-10.7-2.9-21.6-3.1-32.4h-12.5c-2.7 0-4.9-2.2-4.9-4.9v-15.3c-8.5-2-16.6-5.4-24-9.9l-10.9 10.7c-1.9 1.9-5 1.9-6.9 0l-20.9-20.9c-1.9-1.9-1.9-5 0-6.9l10.8-10.9c-4.5-7.4-7.9-15.5-9.9-24h-15.4c-2.8 0-5-2.2-4.9-5.3v-29.2c0-2.7 2.2-4.9 4.9-4.9h15.3c2.1-8.5 5.4-16.6 9.9-24l-10.8-10.9c-1.9-1.9-1.9-5 0-6.9l20.9-20.9c1.9-1.9 5-1.9 6.9 0l10.8 10.9c7.4-4.5 15.5-7.9 24-9.9v-15.5c0-2.7 2.2-4.9 4.9-4.9h29.6c2.7 0 4.9 2.2 4.9 4.9v15.3c8.5 2 16.6 5.4 24 9.9l10.9-10.9c1.9-1.9 5-1.9 6.9 0l21.1 21.1c1.9 1.9 1.9 5 0 6.9l-10.8 10.9c1.8 2.9 3.4 6 4.8 9.2 32.9-16.5 72.1-22.6 111.9-22.6 104.5 0 155.3 69.9 155.3 170.1 0 2.7-.1 5.7-.2 9 6.2 12.8 17.3 30.4 28.3 47.9 5.6 8.8 11.1 17.7 15.8 25.4 8.4 14-1.6 32.3-18.1 33l-37 1.8-.7 51.3c-.2 13.3-5.3 24.9-14.8 34.2s-21.2 14.2-34.5 14.2h-33.5c-18.4 0-34.2 12.6-38.5 30.5l-8.2 34.2c-.5 2.2-2.6 3.7-4.8 3.7h-160c-3.1 0-5.7-2.9-4.6-6.5 4.3-18.1 7-30.8 9.7-43.6 2.5-11.7 5-23.4 9-40.4zm2.5-193.7h-19.8v14.4c0 2.3-1.6 4.4-4 4.8-5 .9-9.8 2.4-14.5 4.3-4.6 1.9-8.9 4.3-13 7-1.9 1.5-4.7 1.4-6.5-.4l-10.2-10.2-14 14 10.2 10.2c1.6 1.6 1.9 4.3.6 6.2-2.8 4.1-5.2 8.6-7.2 13.3-1.9 4.5-3.3 9.2-4.3 14.1-.3 2.4-2.4 4.3-4.9 4.3h-14.3v19.8h14.4c2.3 0 4.4 1.6 4.8 4 .9 5 2.4 9.8 4.3 14.5 1.9 4.6 4.3 8.9 7 13 1.5 1.9 1.4 4.7-.4 6.5l-10.2 10.2 14 14 10.2-10.2c1.6-1.6 4.3-1.9 6.2-.6 4.2 2.8 8.6 5.2 13.3 7.2 4.5 1.9 9.2 3.3 14.1 4.3 2.4.3 4.3 2.4 4.3 4.9v14.4h19.5c.1-.6.2-1.2.3-1.8v-12.4c-.1-2.4 1.5-4.6 4-5.1 5-.9 9.8-2.4 14.4-4.3s8.9-4.3 13-7c1.9-1.5 4.7-1.4 6.5.4l10.2 10.2 14-14-10.2-10.2c-1.6-1.6-1.9-4.3-.6-6.2 2.8-4.2 5.2-8.6 7.2-13.3 1.9-4.5 3.3-9.2 4.3-14.1.3-2.4 2.4-4.3 4.9-4.3h14.4v-19.8h-14.4c-2.3 0-4.4-1.6-4.8-4-.9-5-2.4-9.8-4.3-14.4s-4.3-8.9-7-13c-1.5-1.9-1.4-4.7.4-6.5l10.2-10.2-14-14-10.2 10.2c-1.6 1.6-4.3 1.9-6.2.6-4.1-2.8-8.6-5.2-13.3-7.2-4.5-1.9-9.2-3.3-14.1-4.3-2.4-.3-4.3-2.4-4.3-4.9zm-9.9 37.7c30 0 54.2 24.3 54.2 54.3 0 30-24.3 54.3-54.3 54.3-30 0-54.3-24.3-54.3-54.3s24.5-54.3 54.4-54.3zm31.5 22.8c-14.9-14.9-38.3-17.3-55.9-5.7 13.2 40 33.2 53 42.3 77.9 15.9-7 26.6-22.8 26.6-40.7 0-12.3-5-23.4-13-31.5zm-64 1.2c-16.4 17.5-15.9 44.8 1 61.8 8.1 8.1 19.2 13 31.4 13 2.9 0 5.7-.3 8.5-.8-8.2-22-27.5-36.3-40.9-74zm-1.7-267.7h-19.8v14.4c0 2.3-1.6 4.4-4 4.8-5 .9-9.9 2.4-14.5 4.3s-8.9 4.3-13 7c-1.9 1.5-4.7 1.4-6.5-.4l-10.2-10.2-14 14 10.2 10.2c1.6 1.6 1.9 4.3.6 6.2-2.8 4.2-5.2 8.6-7.2 13.3-1.8 4.5-3.3 9.2-4.3 14.1-.3 2.4-2.4 4.3-4.8 4.3h-14.4v19.8h14.4c2.3 0 4.4 1.6 4.8 4 1 5 2.4 9.8 4.3 14.4s4.3 8.9 7 13c1.5 1.9 1.4 4.7-.4 6.5l-10.2 10.2 14 14 10.2-10.2c1.6-1.6 4.2-1.9 6.2-.6 4.2 2.8 8.6 5.2 13.3 7.2 4.5 1.9 9.2 3.3 14.1 4.3 2.4.3 4.3 2.4 4.3 4.9v14.4h19.8v-14.1c-.1-2.4 1.5-4.6 4-5.1 5-.9 9.9-2.4 14.5-4.3s8.9-4.3 13-7c1.9-1.5 4.7-1.4 6.5.4l10.2 10.2 14-14-10.2-10.2c-1.6-1.6-1.9-4.3-.6-6.2 2.8-4.1 5.2-8.6 7.2-13.3 1.8-4.5 3.3-9.2 4.3-14.1.3-2.4 2.4-4.3 4.8-4.3h14.4v-19.9h-14.4c-2.3 0-4.4-1.6-4.8-4-1-5-2.4-9.8-4.3-14.5-1.9-4.6-4.3-8.9-7-13-1.5-1.9-1.4-4.7.4-6.5l10.2-10.2-14-14-10.2 10.2c-1.6 1.6-4.2 1.9-6.2.6-4.2-2.8-8.6-5.2-13.3-7.2-4.5-1.9-9.2-3.3-14.1-4.3-2.4-.3-4.3-2.4-4.3-4.9zm-9.9 37.7c30 0 54.3 24.3 54.3 54.3 0 30-24.3 54.3-54.3 54.3-30 0-54.3-24.3-54.3-54.2 0-30.1 24.3-54.4 54.3-54.4zm31.4 22.8c-17.3-17.4-45.5-17.4-62.9 0-17.3 17.3-17.3 45.5 0 62.9 8.1 8.1 19.2 13 31.4 13 2.2 0 4.4-.2 6.5-.5 7.4-21.4 19.4-40.2 36.4-55.7-2-7.5-6-14.3-11.4-19.7zm-13.2 72c15.6-7 26.1-22.5 26.2-40.2-11.4 11.7-20.1 25.2-26.2 40.2zm198.1 123.3h-42.6c-.3-17.8-1.3-34.1 6.3-49.9 8.3-17.2 26.4-30.2 39.9-43 3.4-3.2 5.6-5.6 6.6-6.9 5-7 6.1-16.3 2.6-24.3-2.9-6.6-8.9-11.9-15.8-14.3-7.7-2.7-18.3-2.7-26.1.1-3.9 1.4-7.3 3.5-10.4 6.3-7.2 6.6-11.1 16.6-13.2 26.8l-.9 4.5-47.2-6.4.3-4.5c1.2-20.3 9.4-37.5 24.2-51.4 15.8-15 36.1-21.1 58.4-21.1 23 0 44.2 6 60.4 21.3 14.5 13.7 22.7 30.4 22.7 50.1 0 10.7-2.9 21-8.4 30.3-6.9 11.7-22 26.1-34.2 36.9-5.3 4.7-12.8 11.9-15.1 17.1-2.8 6.3-2.5 20-2.4 28.4zm-33-9.8h28.1c.1-7.6.7-16.6 3.3-22.5 3.1-6.9 10.9-14.6 17.6-20.5 11.2-9.9 26-24.1 32.3-34.6 4.7-7.9 7.1-16.2 7.1-25.3 0-17.1-7-31.1-19.6-43-14.4-13.6-33.2-18.7-53.7-18.7-19.9 0-37.6 5.2-51.7 18.5-11.8 11.2-18.8 24.5-20.7 40.4l29.1 3.9c1.3-5.2 3-9.9 5.1-14 7.9-16 22.1-24.6 40-24.6 11.3 0 21.6 3 29.6 10.6 10.1 9.4 13.8 23 9.7 36-2.4 7.6-6.2 11.7-12.6 17.8-8.5 8.1-21.1 18.1-29.4 27.7-7.1 8.3-10.6 15.1-12.6 25.6-1.7 7.8-1.7 14.7-1.6 22.7zm-9.7 64.4v-39.8h47.7v44.7h-47.7zm9.8-30v25.1h28v-25.1z"/></svg>